<svg width="1286" height="795" viewBox="0 0 1286 795" fill="none" xmlns="http://www.w3.org/2000/svg">
<path d="M1285 -5H0V795H1185C1240.23 795 1285 750.228 1285 695V-5Z" fill="url(#paint0_linear)"/>
<mask id="mask0" mask-type="alpha" maskUnits="userSpaceOnUse" x="0" y="-5" width="1285" height="800">
<path d="M1285 -5H0V795H1185C1240.23 795 1285 750.228 1285 695V-5Z" fill="url(#paint1_linear)"/>
</mask>
<g mask="url(#mask0)">
<path d="M1325.57 339.525H1314.74C1312.5 339.525 1310.68 341.343 1310.68 343.586V587.864C1310.68 590.948 1308.18 593.448 1305.09 593.448C1302.01 593.448 1299.51 590.948 1299.51 587.864V431.796C1299.51 426.273 1295.03 421.796 1289.51 421.796H1279.05C1273.53 421.796 1269.05 426.273 1269.05 431.796V441.59C1269.05 447.113 1264.57 451.59 1259.05 451.59H1193.07C1188.86 451.59 1185.45 455 1185.45 459.207V463.441C1185.45 465.31 1183.94 466.825 1182.07 466.825C1180.2 466.825 1178.68 468.34 1178.68 470.21V524.553C1178.68 529.133 1174.97 532.845 1170.39 532.845C1165.81 532.845 1162.1 536.558 1162.1 541.137V577.354C1162.1 582.877 1157.62 587.354 1152.1 587.354H1151.11C1145.59 587.354 1141.11 591.831 1141.11 597.354V650.329C1141.11 652.385 1139.45 654.052 1137.39 654.052C1135.33 654.052 1133.67 652.385 1133.67 650.329V343.248C1133.67 341.566 1132.3 340.202 1130.62 340.202C1128.94 340.202 1127.57 338.838 1127.57 337.156V310.237C1127.57 307.34 1125.23 304.991 1122.33 304.991C1119.43 304.991 1117.08 302.642 1117.08 299.745V273.673C1117.08 271.71 1115.49 270.119 1113.53 270.119C1111.57 270.119 1109.98 268.528 1109.98 266.565V245.247C1109.98 239.724 1105.5 235.247 1099.98 235.247H1074.62C1069.1 235.247 1064.62 239.724 1064.62 245.247V266.565C1064.62 268.528 1063.03 270.119 1061.07 270.119C1059.11 270.119 1057.51 271.71 1057.51 273.673V299.745C1057.51 302.642 1055.17 304.991 1052.27 304.991C1049.37 304.991 1047.02 307.34 1047.02 310.237V337.325C1047.02 338.727 1045.89 339.863 1044.48 339.863C1043.08 339.863 1041.95 341 1041.95 342.402V551.638C1041.95 554.909 1039.29 557.561 1036.02 557.561C1032.75 557.561 1030.1 560.212 1030.1 563.484V646.775C1030.1 650.794 1026.84 654.052 1022.82 654.052H1016.22C1015.85 654.052 1015.55 653.748 1015.55 653.374C1015.55 653 1015.24 652.697 1014.87 652.697H1012.67C1012.02 652.697 1011.49 652.167 1011.49 651.512C1011.49 650.858 1012.02 650.327 1012.67 650.327H1013.85C1014.79 650.327 1015.55 649.569 1015.55 648.635C1015.55 647.7 1014.79 646.942 1013.85 646.942H1012.84C1012.09 646.942 1011.49 646.335 1011.49 645.587C1011.49 644.84 1012.09 644.233 1012.84 644.233H1013.85C1014.79 644.233 1015.55 643.475 1015.55 642.54C1015.55 641.605 1014.79 640.848 1013.85 640.848H1012.67C1012.02 640.848 1011.49 640.317 1011.49 639.663C1011.49 639.008 1012.02 638.478 1012.67 638.478H1013.85C1014.79 638.478 1015.55 637.72 1015.55 636.785C1015.55 635.85 1014.79 635.092 1013.85 635.092H1012.67C1012.02 635.092 1011.49 634.561 1011.49 633.907C1011.49 633.253 1012.02 632.722 1012.67 632.722H1013.85C1014.79 632.722 1015.55 631.964 1015.55 631.029C1015.55 630.094 1014.79 629.336 1013.85 629.336H1012.67C1012.02 629.336 1011.49 628.806 1011.49 628.151C1011.49 627.497 1012.02 626.966 1012.67 626.966H1013.85C1014.79 626.966 1015.55 626.208 1015.55 625.274C1015.55 624.339 1014.79 623.581 1013.85 623.581H1012.67C1012.02 623.581 1011.49 623.05 1011.49 622.396C1011.49 621.741 1012.02 621.211 1012.67 621.211H1013.85C1014.79 621.211 1015.55 620.453 1015.55 619.518C1015.55 618.583 1014.79 617.825 1013.85 617.825H1012.67C1012.02 617.825 1011.49 617.295 1011.49 616.64C1011.49 615.986 1012.02 615.455 1012.67 615.455H1013.85C1014.79 615.455 1015.55 614.697 1015.55 613.762C1015.55 612.827 1014.79 612.07 1013.85 612.07H1012.67C1012.02 612.07 1011.49 611.539 1011.49 610.885C1011.49 610.23 1012.02 609.7 1012.67 609.7H1013.85C1014.79 609.7 1015.55 608.942 1015.55 608.007C1015.55 607.072 1014.79 606.314 1013.85 606.314H1012.67C1012.02 606.314 1011.49 605.783 1011.49 605.129C1011.49 604.475 1012.02 603.944 1012.67 603.944H1013.85C1014.79 603.944 1015.55 603.186 1015.55 602.251C1015.55 601.316 1014.79 600.558 1013.85 600.558H1012.67C1012.02 600.558 1011.49 600.028 1011.49 599.373C1011.49 598.719 1012.02 598.188 1012.67 598.188H1013.85C1014.79 598.188 1015.55 597.43 1015.55 596.496C1015.55 595.561 1014.79 594.803 1013.85 594.803H1013.52C1012.39 594.803 1011.49 593.893 1011.49 592.772V592.094C1011.49 590.972 1012.39 590.063 1013.52 590.063H1013.85C1014.79 590.063 1015.55 589.305 1015.55 588.37C1015.55 587.435 1014.79 586.677 1013.85 586.677H1012.67C1012.02 586.677 1011.49 586.147 1011.49 585.492C1011.49 584.838 1012.02 584.307 1012.67 584.307H1013.85C1014.79 584.307 1015.55 583.549 1015.55 582.614C1015.55 581.679 1014.79 580.922 1013.85 580.922H1012.67C1012.02 580.922 1011.49 580.391 1011.49 579.737C1011.49 579.082 1012.02 578.552 1012.67 578.552H1013.85C1014.79 578.552 1015.55 577.794 1015.55 576.859C1015.55 575.924 1014.79 575.166 1013.85 575.166H1012.67C1012.02 575.166 1011.49 574.635 1011.49 573.981C1011.49 573.327 1012.02 572.796 1012.67 572.796H1013.85C1014.79 572.796 1015.55 572.038 1015.55 571.103C1015.55 570.168 1014.79 569.41 1013.85 569.41H1012.67C1012.02 569.41 1011.49 568.88 1011.49 568.225C1011.49 567.571 1012.02 567.04 1012.67 567.04H1013.85C1014.79 567.04 1015.55 566.282 1015.55 565.348C1015.55 564.413 1014.79 563.655 1013.85 563.655H1012.67C1012.02 563.655 1011.49 563.124 1011.49 562.47C1011.49 561.815 1012.02 561.285 1012.67 561.285H1013.85C1014.79 561.285 1015.55 560.527 1015.55 559.592C1015.55 558.657 1014.79 557.899 1013.85 557.899H1012.67C1012.02 557.899 1011.49 557.369 1011.49 556.714C1011.49 556.06 1012.02 555.529 1012.67 555.529H1013.85C1014.79 555.529 1015.55 554.771 1015.55 553.836C1015.55 552.901 1014.79 552.144 1013.85 552.144H1012.67C1012.02 552.144 1011.49 551.613 1011.49 550.959C1011.49 550.304 1012.02 549.774 1012.67 549.774H1013.85C1014.79 549.774 1015.55 549.016 1015.55 548.081C1015.55 547.146 1014.79 546.388 1013.85 546.388H1012.67C1012.02 546.388 1011.49 545.857 1011.49 545.203C1011.49 544.548 1012.02 544.018 1012.67 544.018H1013.85C1014.79 544.018 1015.55 543.26 1015.55 542.325C1015.55 541.39 1014.79 540.632 1013.85 540.632H1012.67C1012.02 540.632 1011.49 540.102 1011.49 539.447C1011.49 538.793 1012.02 538.262 1012.67 538.262H1013.85C1014.79 538.262 1015.55 537.504 1015.55 536.57C1015.55 535.635 1014.79 534.877 1013.85 534.877H1012.67C1012.02 534.877 1011.49 534.346 1011.49 533.692C1011.49 533.037 1012.02 532.507 1012.67 532.507H1013.85C1014.79 532.507 1015.55 531.749 1015.55 530.814C1015.55 529.879 1014.79 529.121 1013.85 529.121H1012.67C1012.02 529.121 1011.49 528.591 1011.49 527.936C1011.49 527.282 1012.02 526.751 1012.67 526.751H1013.85C1014.79 526.751 1015.55 525.993 1015.55 525.058C1015.55 524.123 1014.79 523.366 1013.85 523.366H1012.67C1012.02 523.366 1011.49 522.835 1011.49 522.181C1011.49 521.526 1012.02 520.996 1012.67 520.996H1013.85C1014.79 520.996 1015.55 520.238 1015.55 519.303C1015.55 518.368 1014.79 517.61 1013.85 517.61H1013.52C1012.39 517.61 1011.49 516.701 1011.49 515.579V514.224C1011.49 513.102 1012.39 512.193 1013.52 512.193H1013.85C1014.79 512.193 1015.55 511.435 1015.55 510.5C1015.55 509.565 1014.79 508.807 1013.85 508.807H1012.67C1012.02 508.807 1011.49 508.277 1011.49 507.622C1011.49 506.968 1012.02 506.437 1012.67 506.437H1013.85C1014.79 506.437 1015.55 505.679 1015.55 504.744C1015.55 503.81 1014.79 503.052 1013.85 503.052H1012.67C1012.02 503.052 1011.49 502.521 1011.49 501.867C1011.49 501.212 1012.02 500.682 1012.67 500.682H1013.85C1014.79 500.682 1015.55 499.924 1015.55 498.989C1015.55 498.054 1014.79 497.296 1013.85 497.296H1012.67C1012.02 497.296 1011.49 496.765 1011.49 496.111C1011.49 495.457 1012.02 494.926 1012.67 494.926H1013.85C1014.79 494.926 1015.55 494.168 1015.55 493.233C1015.55 492.298 1014.79 491.54 1013.85 491.54H1013.52C1012.39 491.54 1011.49 490.631 1011.49 489.51V487.308C1011.49 486.467 1010.8 485.785 1009.96 485.785C1009.12 485.785 1008.44 485.103 1008.44 484.262V482.061C1008.44 480.004 1006.77 478.336 1004.72 478.336H1004.38C1002.13 478.336 1000.32 476.518 1000.32 474.275V463.438C1000.32 461.756 998.953 460.392 997.271 460.392C995.588 460.392 994.224 459.029 994.224 457.346V445.761C994.224 441.06 990.95 436.994 986.357 435.991L975.609 433.646C973.034 433.051 971.209 430.758 971.209 428.114V396.572C971.209 395.918 970.679 395.388 970.025 395.388C969.371 395.388 968.84 395.918 968.84 396.572V428.473C968.84 430.429 967.024 431.879 965.117 431.445C963.21 431.012 961.394 432.461 961.394 434.417V457.854C961.394 459.256 960.258 460.392 958.856 460.392C957.454 460.392 956.318 461.529 956.318 462.931V474.275C956.318 476.518 954.499 478.336 952.256 478.336H951.411C949.635 478.336 948.195 479.776 948.195 481.553V483.246C948.195 484.087 947.513 484.769 946.672 484.769C945.831 484.769 945.149 485.451 945.149 486.292V487.647C945.149 489.236 943.86 490.525 942.271 490.525H912.503C906.981 490.525 902.503 495.002 902.503 500.525V518.105C902.503 523.628 898.026 528.105 892.503 528.105H867.83C866.588 528.105 865.357 528.337 864.2 528.788L833.797 540.632C832.775 541.041 832.105 542.031 832.105 543.132V554.853C832.105 556.348 833.318 557.561 834.813 557.561H835.489C836.611 557.561 837.52 558.47 837.52 559.592C837.52 560.714 836.611 561.623 835.489 561.623H834.137C833.015 561.623 832.105 562.533 832.105 563.655C832.105 564.777 833.015 565.686 834.137 565.686H835.489C836.611 565.686 837.52 566.596 837.52 567.718C837.52 568.839 836.611 569.749 835.489 569.749H834.137C833.015 569.749 832.105 570.658 832.105 571.78C832.105 572.902 833.015 573.812 834.137 573.812H835.489C836.611 573.812 837.52 574.721 837.52 575.843C837.52 576.965 836.611 577.874 835.489 577.874H834.137C833.015 577.874 832.105 578.784 832.105 579.906C832.105 581.028 833.015 581.937 834.137 581.937H835.489C836.611 581.937 837.52 582.847 837.52 583.969C837.52 585.091 836.611 586 835.489 586H834.137C833.015 586 832.105 586.91 832.105 588.031C832.105 589.153 833.015 590.063 834.137 590.063H835.997C836.838 590.063 837.52 590.745 837.52 591.586C837.52 592.428 836.838 593.11 835.997 593.11H805.219C801.036 593.11 797.295 590.507 795.842 586.585L787.79 564.855C786.389 561.076 781.041 561.082 779.65 564.865C777.954 569.477 770.828 568.154 770.838 563.24C770.845 559.879 770.845 556.519 770.845 553.159C770.845 548.419 770.845 543.679 770.845 538.939C770.845 525.397 770.845 511.854 770.507 498.312C770.507 492.556 770.168 486.462 770.168 480.706C769.83 468.179 769.491 455.652 768.814 442.787C768.476 436.693 768.476 430.599 768.137 424.504C767.461 412.655 767.122 401.143 766.445 389.294C766.445 387.939 766.107 386.585 766.107 385.231C765.43 374.735 764.753 364.578 764.076 354.083C762.722 335.123 761.03 316.164 759.338 297.204C759.214 295.475 759.046 293.701 758.865 291.915C758.337 286.695 753.919 282.646 748.672 282.646H685.252C680.398 282.646 676.078 286.256 676.078 291.11C675.74 295.173 675.401 299.235 675.063 303.298C674.724 306.684 674.386 310.408 674.047 313.794C673.371 320.226 673.032 326.659 672.355 333.092C672.017 336.139 672.017 338.848 671.678 341.895C671.34 347.312 671.001 352.729 670.325 358.146C669.986 360.516 669.986 362.886 669.986 364.917C669.648 372.027 668.971 379.137 668.632 385.908C668.632 388.278 668.294 390.648 668.294 393.018C667.955 400.466 667.617 407.576 667.278 415.025C667.278 416.717 666.94 418.072 666.94 419.765C666.602 426.536 666.263 433.646 665.925 440.417C665.925 441.771 665.925 443.126 665.925 444.48C665.586 452.267 665.248 460.054 665.248 467.841C665.248 469.534 665.248 470.888 665.248 472.581C664.909 480.706 664.909 488.832 664.571 496.619V497.635C664.571 505.76 664.233 513.886 664.233 521.673C664.233 522.688 664.233 523.704 664.233 524.72C664.233 532.845 664.233 540.971 664.233 549.096C664.233 550.112 664.233 551.466 664.233 552.482C664.233 554.894 664.233 557.307 664.233 559.763C664.233 563.782 660.975 567.04 656.956 567.04C652.937 567.04 649.679 570.298 649.679 574.317V655.578C649.679 660.344 645.815 664.208 641.048 664.208H633.264C632.797 664.208 632.418 663.83 632.418 663.362C632.418 662.895 632.797 662.516 633.264 662.516H633.941C634.782 662.516 635.464 661.834 635.464 660.993V660.315C635.464 659.473 634.782 658.792 633.941 658.792C633.1 658.792 632.418 658.11 632.418 657.268V655.913C632.418 655.072 633.1 654.39 633.941 654.39C634.782 654.39 635.464 653.708 635.464 652.867V652.189C635.464 651.348 634.782 650.666 633.941 650.666C633.1 650.666 632.418 649.984 632.418 649.143V647.449C632.418 646.608 633.1 645.926 633.941 645.926C634.782 645.926 635.464 645.244 635.464 644.403V643.725C635.464 642.884 634.782 642.202 633.941 642.202C633.1 642.202 632.418 641.52 632.418 640.679V638.985C632.418 638.144 633.1 637.462 633.941 637.462C634.782 637.462 635.464 636.78 635.464 635.939V635.261C635.464 634.42 634.782 633.738 633.941 633.738C633.1 633.738 632.418 633.056 632.418 632.215V630.521C632.418 629.68 633.1 628.998 633.941 628.998C634.782 628.998 635.464 628.316 635.464 627.475V626.797C635.464 625.955 634.782 625.274 633.941 625.274C633.1 625.274 632.418 624.592 632.418 623.75V622.057C632.418 621.216 633.1 620.534 633.941 620.534C634.782 620.534 635.464 619.852 635.464 619.011V618.332C635.464 617.491 634.782 616.809 633.941 616.809C633.1 616.809 632.418 616.128 632.418 615.286V613.593C632.418 612.751 633.1 612.07 633.941 612.07C634.782 612.07 635.464 611.388 635.464 610.546V609.868C635.464 609.027 634.782 608.345 633.941 608.345C633.1 608.345 632.418 607.663 632.418 606.822V605.128C632.418 604.287 633.1 603.605 633.941 603.605C634.782 603.605 635.464 602.923 635.464 602.082V601.404C635.464 600.563 634.782 599.881 633.941 599.881C633.1 599.881 632.418 599.199 632.418 598.358V596.664C632.418 595.823 633.1 595.141 633.941 595.141C634.782 595.141 635.464 594.459 635.464 593.618V592.94C635.464 592.099 634.782 591.417 633.941 591.417C633.1 591.417 632.418 590.735 632.418 589.894V588.2C632.418 587.359 633.1 586.677 633.941 586.677C634.782 586.677 635.464 585.995 635.464 585.154V584.476C635.464 583.635 634.782 582.953 633.941 582.953C633.1 582.953 632.418 582.271 632.418 581.43V579.736C632.418 578.895 633.1 578.213 633.941 578.213C634.782 578.213 635.464 577.531 635.464 576.69V574.658C635.464 573.816 634.782 573.135 633.941 573.135C633.1 573.135 632.418 572.453 632.418 571.611V569.918C632.418 569.077 633.1 568.395 633.941 568.395C634.782 568.395 635.464 567.713 635.464 566.872V566.194C635.464 565.352 634.782 564.67 633.941 564.67C633.1 564.67 632.418 563.989 632.418 563.147V561.115C632.418 560.274 633.1 559.592 633.941 559.592C634.782 559.592 635.464 558.91 635.464 558.069V557.391C635.464 556.55 634.782 555.868 633.941 555.868C633.1 555.868 632.418 555.186 632.418 554.345V552.651C632.418 551.81 633.1 551.128 633.941 551.128C634.782 551.128 635.464 550.446 635.464 549.605V548.927C635.464 548.086 634.782 547.404 633.941 547.404C633.1 547.404 632.418 546.722 632.418 545.881V544.187C632.418 543.346 633.1 542.664 633.941 542.664C634.782 542.664 635.464 541.982 635.464 541.141V540.463C635.464 539.621 634.782 538.939 633.941 538.939C633.1 538.939 632.418 538.258 632.418 537.416V535.723C632.418 534.882 633.1 534.2 633.941 534.2C634.782 534.2 635.464 533.518 635.464 532.677V531.998C635.464 531.157 634.782 530.475 633.941 530.475C633.1 530.475 632.418 529.793 632.418 528.952V527.259C632.418 526.417 633.1 525.735 633.941 525.735C634.782 525.735 635.464 525.054 635.464 524.212V523.534C635.464 522.693 634.782 522.011 633.941 522.011C633.1 522.011 632.418 521.329 632.418 520.488V518.794C632.418 517.953 633.1 517.271 633.941 517.271C634.782 517.271 635.464 516.589 635.464 515.748V515.07C635.464 514.229 634.782 513.547 633.941 513.547C633.1 513.547 632.418 512.865 632.418 512.024V510.33C632.418 509.489 633.1 508.807 633.941 508.807C634.782 508.807 635.464 508.125 635.464 507.284V506.606C635.464 505.765 634.782 505.083 633.941 505.083C633.1 505.083 632.418 504.401 632.418 503.56V501.866C632.418 501.025 633.1 500.343 633.941 500.343C634.782 500.343 635.464 499.661 635.464 498.82V496.788C635.464 495.947 634.782 495.265 633.941 495.265C633.1 495.265 632.418 494.583 632.418 493.742V492.048C632.418 491.207 633.1 490.525 633.941 490.525C634.782 490.525 635.464 489.843 635.464 489.002V488.324C635.464 487.482 634.782 486.8 633.941 486.8C633.1 486.8 632.418 486.119 632.418 485.277V483.584C632.418 482.742 633.1 482.061 633.941 482.061C634.782 482.061 635.464 481.379 635.464 480.537V479.859C635.464 479.018 634.782 478.336 633.941 478.336C633.1 478.336 632.418 477.654 632.418 476.813V475.12C632.418 474.278 633.1 473.596 633.941 473.596C634.782 473.596 635.464 472.915 635.464 472.073V471.395C635.464 470.554 634.782 469.872 633.941 469.872C633.1 469.872 632.418 469.19 632.418 468.349V462.931C632.418 462.09 633.1 461.408 633.941 461.408C634.782 461.408 635.464 460.726 635.464 459.885V458.869C635.464 457.466 634.327 456.33 632.925 456.33H628.019C626.71 456.33 625.649 455.269 625.649 453.96V453.402C625.649 452.401 626.46 451.59 627.461 451.59C628.951 451.59 629.805 449.893 628.917 448.697L616.776 432.337C615.331 430.392 613.051 429.244 610.628 429.244H610.421C606.307 429.244 602.972 425.91 602.972 421.796C602.972 421.048 602.295 420.174 602.295 419.426V399.958C602.295 399.304 601.765 398.774 601.111 398.774C600.457 398.774 599.926 399.304 599.926 399.958V419.479C599.926 420.198 599.25 421.077 599.25 421.796C599.25 425.91 595.915 429.244 591.801 429.244H591.594C589.171 429.244 586.891 430.392 585.446 432.338L572.634 449.601C572.024 450.423 572.611 451.59 573.635 451.59C574.323 451.59 574.881 452.148 574.881 452.836V453.96C574.881 455.269 573.82 456.33 572.511 456.33H567.605C566.203 456.33 565.066 457.466 565.066 458.869V459.547C565.066 460.575 565.899 461.408 566.927 461.408C567.955 461.408 568.789 462.242 568.789 463.27V468.011C568.789 469.039 567.955 469.872 566.927 469.872C565.899 469.872 565.066 470.706 565.066 471.734C565.066 472.762 565.899 473.596 566.927 473.596C567.955 473.596 568.789 474.43 568.789 475.458V476.475C568.789 477.503 567.955 478.336 566.927 478.336C565.899 478.336 565.066 479.17 565.066 480.198C565.066 481.227 565.899 482.061 566.927 482.061C567.955 482.061 568.789 482.894 568.789 483.922V484.939C568.789 485.967 567.955 486.8 566.927 486.8C565.899 486.8 565.066 487.634 565.066 488.663C565.066 489.691 565.899 490.525 566.927 490.525C567.955 490.525 568.789 491.358 568.789 492.386V493.403C568.789 494.431 567.955 495.265 566.927 495.265C565.899 495.265 565.066 496.099 565.066 497.127C565.066 498.155 565.899 498.989 566.927 498.989C567.955 498.989 568.789 499.822 568.789 500.85V501.867C568.789 502.895 567.955 503.729 566.927 503.729C565.899 503.729 565.066 504.563 565.066 505.591C565.066 506.619 565.899 507.453 566.927 507.453C567.955 507.453 568.789 508.286 568.789 509.314V510.331C568.789 511.359 567.955 512.193 566.927 512.193C565.899 512.193 565.066 513.027 565.066 514.055C565.066 515.083 565.899 515.917 566.927 515.917C567.955 515.917 568.789 516.75 568.789 517.779V518.795C568.789 519.824 567.955 520.657 566.927 520.657C565.899 520.657 565.066 521.491 565.066 522.519C565.066 523.547 565.899 524.381 566.927 524.381C567.955 524.381 568.789 525.215 568.789 526.243V527.26C568.789 528.288 567.955 529.121 566.927 529.121C565.899 529.121 565.066 529.955 565.066 530.983C565.066 532.011 565.899 532.845 566.927 532.845C567.955 532.845 568.789 533.679 568.789 534.707V535.724C568.789 536.752 567.955 537.585 566.927 537.585C565.899 537.585 565.066 538.419 565.066 539.447C565.066 540.475 565.899 541.309 566.927 541.309C567.955 541.309 568.789 542.143 568.789 543.171V544.188C568.789 545.216 567.955 546.049 566.927 546.049C565.899 546.049 565.066 546.883 565.066 547.911C565.066 548.94 565.899 549.774 566.927 549.774C567.955 549.774 568.789 550.607 568.789 551.635V552.652C568.789 553.68 567.955 554.513 566.927 554.513C565.899 554.513 565.066 555.348 565.066 556.376C565.066 557.404 565.899 558.238 566.927 558.238C567.955 558.238 568.789 559.071 568.789 560.099V561.116C568.789 562.144 567.955 562.978 566.927 562.978C565.899 562.978 565.066 563.812 565.066 564.84C565.066 565.868 565.899 566.702 566.927 566.702C567.955 566.702 568.789 567.535 568.789 568.563V569.58C568.789 570.608 567.955 571.442 566.927 571.442C565.899 571.442 565.066 572.276 565.066 573.304C565.066 574.332 565.899 575.166 566.927 575.166C567.955 575.166 568.789 575.999 568.789 577.027V578.044C568.789 579.072 567.955 579.906 566.927 579.906C565.899 579.906 565.066 580.74 565.066 581.768C565.066 582.796 565.899 583.63 566.927 583.63H568.281C568.561 583.63 568.789 583.857 568.789 584.138C568.789 584.418 568.561 584.646 568.281 584.646H550.514C548.083 584.646 546.112 582.675 546.112 580.244V576.52V571.78V568.056V563.316V559.592V554.852V551.128V546.388V542.664V537.924V534.2V529.46V525.735V520.996V517.271V512.531V508.807V504.067V500.343V495.603V491.879V487.139V483.415V479.013V475.289V470.549V466.825V462.085V458.361V453.621V449.897V445.496V441.771V437.031V433.307V428.567V424.843V420.103V416.379V411.639V407.915V403.175V399.451V394.711V390.987V386.247V382.522V377.783V374.058V369.318V365.594V360.854V357.13V352.39V348.666V343.926L545.939 336.635C545.839 332.468 543.165 328.799 539.228 327.429L529.149 323.922C525.858 322.777 522.421 325.22 522.421 328.705V330.251C522.421 332.194 520.846 333.769 518.903 333.769C516.932 333.769 515.346 332.15 515.385 330.18L515.829 308.22C515.923 303.558 512.782 299.449 508.257 298.317L486.87 292.969C480.861 291.466 474.945 295.732 474.473 301.908L471.314 343.249L470.976 347.989L470.637 351.713L470.299 356.453L469.96 360.177L469.622 364.917L469.283 368.641L468.945 373.381L468.607 377.105L468.268 381.845L467.93 385.57L467.591 390.309L467.253 394.034L466.914 398.774L466.576 402.498L466.237 407.238L465.899 410.962L465.56 415.702L465.222 419.426L464.884 424.166L464.545 427.89L464.207 432.63L463.868 436.354L463.849 436.618C463.646 439.465 462.235 442.09 459.973 443.831L458.228 445.173C456.001 446.887 454.607 449.465 454.391 452.267L454.053 455.991L453.715 460.731L453.376 464.455L453.038 469.195L452.699 472.919L452.361 477.659L452.022 481.383L451.684 485.785C451.684 486.72 450.926 487.478 449.991 487.478H422.085C416.562 487.478 412.085 491.955 412.085 497.478V536.063C412.085 538.961 409.736 541.309 406.839 541.309C403.942 541.309 401.593 543.658 401.593 546.555V650.668C401.593 654.594 398.411 657.776 394.485 657.776C390.56 657.776 387.378 654.594 387.378 650.668V234.569C387.378 233.073 386.166 231.861 384.67 231.861C383.175 231.861 381.963 230.649 381.963 229.153V192.092C381.963 186.569 377.485 182.092 371.963 182.092H314.457C308.934 182.092 304.457 186.569 304.457 192.092V229.492C304.457 230.987 303.245 232.2 301.749 232.2C300.254 232.2 299.042 233.412 299.042 234.907V415.196C299.042 417.906 296.844 420.103 294.134 420.103H290.242C289.681 420.103 289.226 420.558 289.226 421.119V421.458C289.226 421.832 288.923 422.135 288.549 422.135C288.176 422.135 287.873 422.438 287.873 422.811V426.536C287.873 426.91 288.176 427.213 288.549 427.213C288.923 427.213 289.226 427.516 289.226 427.89V428.229C289.226 428.603 288.923 428.906 288.549 428.906C288.176 428.906 287.873 429.209 287.873 429.583V433.307C287.873 433.681 288.176 433.984 288.549 433.984C288.923 433.984 289.226 434.287 289.226 434.661V435C289.226 435.374 288.923 435.677 288.549 435.677C288.176 435.677 287.873 435.98 287.873 436.354V440.079C287.873 440.453 288.176 440.756 288.549 440.756C288.923 440.756 289.226 441.059 289.226 441.432V441.772C289.226 442.145 288.923 442.448 288.549 442.448C288.176 442.448 287.873 442.751 287.873 443.125V446.85C287.873 447.224 288.176 447.527 288.549 447.527C288.923 447.527 289.226 447.83 289.226 448.204V448.543C289.226 448.917 288.923 449.22 288.549 449.22C288.176 449.22 287.873 449.523 287.873 449.897V453.621C287.873 453.995 288.176 454.298 288.549 454.298C288.923 454.298 289.226 454.601 289.226 454.975V455.314C289.226 455.688 288.923 455.991 288.549 455.991C288.176 455.991 287.873 456.294 287.873 456.668V460.393C287.873 460.766 288.176 461.07 288.549 461.07C288.923 461.07 289.226 461.373 289.226 461.746V462.085C289.226 462.459 288.923 462.762 288.549 462.762C288.176 462.762 287.873 463.065 287.873 463.439V467.164C287.873 467.538 288.176 467.841 288.549 467.841C288.923 467.841 289.226 468.144 289.226 468.518V468.857C289.226 469.231 288.923 469.534 288.549 469.534C288.176 469.534 287.873 469.837 287.873 470.211V473.935C287.873 474.309 288.176 474.612 288.549 474.612C288.923 474.612 289.226 474.915 289.226 475.289V475.628C289.226 476.002 288.923 476.305 288.549 476.305C288.176 476.305 287.873 476.608 287.873 476.982V480.707C287.873 481.08 288.176 481.383 288.549 481.383C288.923 481.383 289.226 481.686 289.226 482.06V482.399C289.226 482.773 288.923 483.076 288.549 483.076C288.176 483.076 287.873 483.379 287.873 483.753V487.478C287.873 487.852 288.176 488.155 288.549 488.155C288.923 488.155 289.226 488.458 289.226 488.832V489.171C289.226 489.545 288.923 489.848 288.549 489.848C288.176 489.848 287.873 490.151 287.873 490.524V494.249C287.873 494.623 288.176 494.926 288.549 494.926C288.923 494.926 289.226 495.229 289.226 495.603V495.942C289.226 496.316 288.923 496.619 288.549 496.619C288.176 496.619 287.873 496.922 287.873 497.296V501.02C287.873 501.394 288.176 501.697 288.549 501.697C288.923 501.697 289.226 502 289.226 502.374V502.713C289.226 503.087 288.923 503.39 288.549 503.39C288.176 503.39 287.873 503.693 287.873 504.067V507.792C287.873 508.166 288.176 508.469 288.549 508.469C288.923 508.469 289.226 508.772 289.226 509.146V509.485C289.226 509.858 288.923 510.161 288.549 510.161C288.176 510.161 287.873 510.465 287.873 510.838V514.563C287.873 514.937 288.176 515.24 288.549 515.24C288.923 515.24 289.226 515.543 289.226 515.917V516.256C289.226 516.63 288.923 516.933 288.549 516.933C288.176 516.933 287.873 517.236 287.873 517.61V521.334C287.873 521.708 288.176 522.011 288.549 522.011C288.923 522.011 289.226 522.314 289.226 522.688V529.798C289.226 530.172 288.923 530.475 288.549 530.475C288.176 530.475 287.873 530.778 287.873 531.152V534.877C287.873 535.251 288.176 535.554 288.549 535.554C288.923 535.554 289.226 535.857 289.226 536.231V536.57C289.226 536.944 288.923 537.247 288.549 537.247C288.176 537.247 287.873 537.55 287.873 537.924V538.77C287.873 539.612 287.19 540.294 286.349 540.294H275.196C269.673 540.294 265.196 535.817 265.196 530.294V438.906C265.196 433.383 260.719 428.906 255.196 428.906H215.628C210.106 428.906 205.628 433.383 205.628 438.906V492.051C205.628 496.818 201.764 500.682 196.998 500.682H190.399C189.277 500.682 188.367 499.772 188.367 498.65C188.367 497.528 187.458 496.619 186.336 496.619H184.813C182.851 496.619 181.26 495.028 181.26 493.065V365.933V222.042C181.26 220.546 180.047 219.334 178.552 219.334C177.057 219.334 175.844 218.122 175.844 216.626V143C175.844 137.477 171.367 133 165.844 133H92.0929C86.5701 133 82.0929 137.477 82.0929 143V216.627C82.0929 218.122 80.8806 219.334 79.3853 219.334C77.89 219.334 76.6777 220.546 76.6777 222.042V580.247C76.6777 583.798 73.7987 586.677 70.2471 586.677C66.6956 586.677 63.8165 583.798 63.8165 580.247V451.771C63.8165 446.248 59.3394 441.771 53.8165 441.771H51.1401C45.6173 441.771 41.1401 437.294 41.1401 431.771V381.167C41.1401 379.111 39.4733 377.444 37.4172 377.444C35.3611 377.444 33.6942 375.777 33.6942 373.721V358.327C33.6942 352.805 29.217 348.327 23.6942 348.327H-61.9032C-67.426 348.327 -71.9032 352.805 -71.9032 358.327V373.721C-71.9032 375.777 -73.5701 377.444 -75.6262 377.444C-77.6823 377.444 -79.3491 379.111 -79.3491 381.167V601.392C-79.3491 606.915 -83.8263 611.392 -89.3491 611.392H-93.7178C-99.2406 611.392 -103.718 606.915 -103.718 601.392V470.054C-103.718 464.531 -108.195 460.054 -113.718 460.054H-183.408C-188.931 460.054 -193.408 464.531 -193.408 470.054V545.714C-193.408 551.135 -197.802 555.529 -203.223 555.529C-208.644 555.529 -213.038 559.924 -213.038 565.344V642.542C-213.038 645.72 -215.614 648.296 -218.792 648.296C-221.97 648.296 -224.546 645.72 -224.546 642.542V380.83V376.427C-224.546 375.119 -225.606 374.058 -226.915 374.058H-228.268C-228.829 374.058 -229.284 373.604 -229.284 373.043C-229.284 372.482 -228.829 372.027 -228.268 372.027H-226.915C-225.606 372.027 -224.546 370.966 -224.546 369.658V367.625C-224.546 366.316 -225.606 365.256 -226.915 365.256H-228.268C-228.829 365.256 -229.284 364.801 -229.284 364.24C-229.284 363.679 -228.829 363.224 -228.268 363.224H-226.915C-225.606 363.224 -224.546 362.164 -224.546 360.855V358.822C-224.546 357.514 -225.606 356.453 -226.915 356.453H-228.268C-228.829 356.453 -229.284 355.998 -229.284 355.437C-229.284 354.876 -228.829 354.422 -228.268 354.422H-226.915C-225.606 354.422 -224.546 353.361 -224.546 352.052V350.019C-224.546 348.711 -225.606 347.65 -226.915 347.65H-228.607C-228.981 347.65 -229.284 347.347 -229.284 346.973C-229.284 346.599 -228.981 346.296 -228.607 346.296H-226.746C-225.344 346.296 -224.207 345.159 -224.207 343.758V342.063C-224.207 340.661 -225.344 339.525 -226.746 339.525H-228.268C-228.829 339.525 -229.284 339.07 -229.284 338.509C-229.284 337.948 -228.829 337.493 -228.268 337.493H-226.746C-225.344 337.493 -224.207 336.357 -224.207 334.955V333.26C-224.207 331.858 -225.344 330.722 -226.746 330.722H-228.268C-228.829 330.722 -229.284 330.267 -229.284 329.706C-229.284 329.145 -228.829 328.691 -228.268 328.691H-226.746C-225.344 328.691 -224.207 327.554 -224.207 326.152V324.458C-224.207 323.056 -225.344 321.919 -226.746 321.919H-228.268C-228.829 321.919 -229.284 321.465 -229.284 320.904C-229.284 320.343 -228.829 319.888 -228.268 319.888H-226.746C-225.344 319.888 -224.207 318.751 -224.207 317.349V299.407C-224.207 296.12 -225.858 293.081 -228.324 290.908C-238.463 281.978 -252.68 262.9 -252.976 236.601V235.924V235.076C-252.976 233.488 -254.264 232.2 -255.853 232.2H-256.867C-257.896 232.2 -258.729 233.033 -258.729 234.062C-258.729 235.09 -259.563 235.924 -260.591 235.924H-262.791C-265.034 235.924 -266.852 234.105 -266.852 231.862V178.536C-266.852 177.695 -267.534 177.013 -268.375 177.013C-269.216 177.013 -269.898 177.695 -269.898 178.536V235.416C-269.898 235.884 -270.277 236.262 -270.745 236.262C-271.212 236.262 -271.591 235.884 -271.591 235.416V234.4C-271.591 233.372 -272.424 232.538 -273.453 232.538H-275.821C-276.849 232.538 -277.683 233.372 -277.683 234.4C-277.683 235.429 -278.516 236.262 -279.545 236.262H-286.651C-287.68 236.262 -288.513 235.429 -288.513 234.4C-288.513 233.372 -289.347 232.538 -290.375 232.538H-291.559C-293.242 232.538 -294.605 233.902 -294.605 235.584V236.262C-294.605 262.941 -301.965 282.257 -310.531 291.354C-312.823 293.788 -314.574 296.842 -314.574 300.185V313.624C-314.574 313.718 -314.498 313.794 -314.405 313.794C-314.311 313.794 -314.236 313.87 -314.236 313.963V317.519C-314.236 319.201 -312.872 320.565 -311.19 320.565H-309.159C-308.598 320.565 -308.143 321.02 -308.143 321.581C-308.143 322.142 -308.598 322.596 -309.159 322.596H-311.19C-312.872 322.596 -314.236 323.96 -314.236 325.643V326.322C-314.236 328.004 -312.872 329.368 -311.19 329.368H-309.159C-308.598 329.368 -308.143 329.822 -308.143 330.383C-308.143 330.944 -308.598 331.399 -309.159 331.399H-311.359C-313.135 331.399 -314.574 332.839 -314.574 334.614V334.955C-314.574 336.731 -313.135 338.17 -311.359 338.17H-308.821C-308.447 338.17 -308.143 338.474 -308.143 338.848C-308.143 339.222 -308.447 339.525 -308.821 339.525H-311.359C-313.135 339.525 -314.574 340.964 -314.574 342.74V343.081C-314.574 344.856 -313.135 346.296 -311.359 346.296H-309.159C-308.598 346.296 -308.143 346.751 -308.143 347.312C-308.143 347.873 -308.598 348.327 -309.159 348.327H-311.359C-313.135 348.327 -314.574 349.767 -314.574 351.543V351.883C-314.574 353.659 -313.135 355.099 -311.359 355.099H-309.159C-308.598 355.099 -308.143 355.553 -308.143 356.114C-308.143 356.675 -308.598 357.13 -309.159 357.13H-311.359C-313.135 357.13 -314.574 358.57 -314.574 360.345V360.686C-314.574 362.462 -313.135 363.901 -311.359 363.901H-309.159C-308.598 363.901 -308.143 364.356 -308.143 364.917C-308.143 365.478 -308.598 365.933 -309.159 365.933H-311.359C-313.135 365.933 -314.574 367.372 -314.574 369.148V369.489C-314.574 371.264 -313.135 372.704 -311.359 372.704H-309.159C-308.598 372.704 -308.143 373.159 -308.143 373.72C-308.143 374.281 -308.598 374.735 -309.159 374.735H-311.528C-313.397 374.735 -314.913 376.251 -314.913 378.12V511.519C-314.913 516.753 -319.155 520.996 -324.389 520.996C-329.623 520.996 -333.866 525.238 -333.866 530.472V587.864C-333.866 590.761 -336.215 593.11 -339.112 593.11C-342.009 593.11 -344.358 595.459 -344.358 598.356V651.193C-344.358 653.345 -346.787 654.474 -348.938 654.393C-349.069 654.388 -349.161 654.381 -349.291 654.362C-349.413 654.345 -349.536 654.328 -349.66 654.31C-353.607 653.758 -356.542 650.414 -356.542 646.429V524.134C-356.542 520.169 -358.885 516.579 -362.514 514.982L-364.694 514.022C-364.898 513.932 -365.119 513.886 -365.342 513.886H-365.849C-367.251 513.886 -368.388 512.749 -368.388 511.346V509.992C-368.388 509.338 -368.919 508.807 -369.573 508.807C-370.227 508.807 -370.757 509.338 -370.757 509.992C-370.757 510.646 -371.288 511.177 -371.942 511.177H-372.086C-372.66 511.177 -373.127 511.643 -373.127 512.218C-373.127 512.773 -373.562 513.23 -374.116 513.258L-377.979 513.451C-379.022 513.503 -379.896 512.672 -379.896 511.628C-379.896 510.937 -380.286 510.305 -380.904 509.995L-381.819 509.538C-382.334 509.281 -382.904 509.155 -383.48 509.172L-403.279 509.763C-404.394 509.796 -405.28 510.709 -405.28 511.824C-405.28 512.963 -406.203 513.886 -407.341 513.886H-407.649C-408.957 513.886 -410.018 514.946 -410.018 516.255V538.758C-410.018 544.281 -414.495 548.758 -420.018 548.758H-437.586C-443.109 548.758 -447.586 544.281 -447.586 538.758V380.49C-447.586 378.06 -449.556 376.09 -451.986 376.09C-454.416 376.09 -456.386 374.12 -456.386 371.69V342.415C-456.386 336.892 -460.863 332.415 -466.386 332.415H-481.43C-484.608 332.415 -487.185 329.838 -487.185 326.659C-487.185 323.48 -489.762 320.904 -492.941 320.904H-496.828C-501.97 320.904 -506.139 316.735 -506.139 311.593C-506.139 306.451 -510.307 302.283 -515.449 302.283H-572.968C-578.49 302.283 -582.968 306.76 -582.968 312.283V322.415C-582.968 327.938 -587.445 332.415 -592.968 332.415H-611.551C-617.074 332.415 -621.551 336.892 -621.551 342.415V634.233C-621.551 639.756 -626.028 644.233 -631.551 644.233H-632.535C-638.058 644.233 -642.535 648.71 -642.535 654.233V663.873C-642.535 669.294 -646.93 673.688 -652.35 673.688C-657.771 673.688 -662.166 669.294 -662.166 663.873V589.906C-662.166 584.383 -666.643 579.906 -672.166 579.906H-682.626C-688.149 579.906 -692.626 575.429 -692.626 569.906V549.475C-692.626 549.243 -692.757 549.031 -692.965 548.927C-693.172 548.823 -693.303 548.611 -693.303 548.379V544.834C-693.303 543.427 -693.77 542.06 -694.632 540.947L-699.334 534.871C-700.69 533.119 -701.426 530.966 -701.426 528.75V522.77C-701.426 521.851 -701.791 520.969 -702.441 520.318C-703.092 519.668 -703.457 518.786 -703.457 517.867V503.221C-703.457 502.94 -703.684 502.713 -703.965 502.713C-704.245 502.713 -704.472 502.94 -704.472 503.221V518.106C-704.472 518.872 -704.777 519.607 -705.318 520.149C-705.86 520.691 -706.164 521.426 -706.164 522.192V529.694C-706.164 531.745 -706.795 533.747 -707.971 535.427L-712.193 541.46C-712.895 542.464 -713.272 543.659 -713.272 544.885V546.86C-713.272 547.623 -713.653 548.335 -714.287 548.758C-714.922 549.181 -715.303 549.893 -715.303 550.655V551.524C-715.303 552.749 -715.945 553.883 -716.995 554.513L-717.412 554.764C-718.203 555.239 -718.687 556.094 -718.687 557.017C-718.687 557.978 -719.212 558.863 -720.056 559.323L-720.549 559.592C-721.696 560.218 -722.41 561.421 -722.41 562.728V593.757C-722.41 597.586 -725.706 600.583 -729.518 600.22C-732.882 600.22 -735.61 597.492 -735.61 594.128V532.35C-735.61 526.827 -740.087 522.35 -745.61 522.35H-767.24C-772.762 522.35 -777.24 526.827 -777.24 532.35V560.087C-777.24 565.61 -781.717 570.087 -787.24 570.087H-793.639C-799.162 570.087 -803.639 574.565 -803.639 580.087V600.39C-803.639 602.166 -805.079 603.605 -806.854 603.605C-808.63 603.605 -810.07 605.045 -810.07 606.821V644.742C-810.07 646.144 -811.206 647.28 -812.608 647.28C-814.01 647.28 -815.146 646.144 -815.146 644.742V628.658C-815.146 626.789 -816.662 625.274 -818.531 625.274C-820.4 625.274 -821.915 623.758 -821.915 621.889V450.078C-821.915 444.556 -826.393 440.078 -831.915 440.078H-879.791C-922.098 440.078 -956.281 469.872 -956.281 512.193V536.049C-956.281 541.572 -960.759 546.049 -966.281 546.049H-970.158C-982.342 546.049 -992.157 567.04 -992.157 578.552V618.321C-992.157 623.844 -996.635 628.321 -1002.16 628.321H-1018.03C-1023.56 628.321 -1028.03 623.844 -1028.03 618.321V580.765C-1028.03 575.242 -1032.51 570.765 -1038.03 570.765H-1042.06C-1047.59 570.765 -1052.06 575.242 -1052.06 580.765V667.765C-1052.06 670.663 -1054.41 673.011 -1057.31 673.011C-1060.21 673.011 -1062.56 670.663 -1062.56 667.765V619.009C-1062.56 617.42 -1063.84 616.132 -1065.43 616.132C-1067.02 616.132 -1068.31 614.844 -1068.31 613.255V580.765C-1068.31 575.242 -1072.79 570.765 -1078.31 570.765H-1079.63C-1085.15 570.765 -1089.63 566.287 -1089.63 560.765V525.24C-1089.63 519.717 -1094.11 515.24 -1099.63 515.24H-1126C-1131.52 515.24 -1136 519.717 -1136 525.24V727C-1136 732.523 -1131.52 737 -1126 737H1344C1349.52 737 1354 732.523 1354 727V349.525C1354 344.002 1349.52 339.525 1344 339.525H1325.57ZM945.149 531.322C945.149 531.976 944.618 532.507 943.964 532.507H941.764C941.577 532.507 941.426 532.355 941.426 532.168V531.322C941.426 530.667 941.956 530.137 942.611 530.137H943.964C944.618 530.137 945.149 530.667 945.149 531.322ZM945.149 525.566C945.149 526.221 944.618 526.751 943.964 526.751H942.611C941.956 526.751 941.426 526.221 941.426 525.566C941.426 524.912 941.956 524.381 942.611 524.381H943.964C944.618 524.381 945.149 524.912 945.149 525.566ZM945.149 519.472C945.149 520.126 944.618 520.657 943.964 520.657H942.611C941.956 520.657 941.426 520.126 941.426 519.472C941.426 518.818 941.956 518.287 942.611 518.287H943.964C944.618 518.287 945.149 518.818 945.149 519.472ZM945.149 513.378C945.149 514.032 944.618 514.563 943.964 514.563H942.611C941.956 514.563 941.426 514.032 941.426 513.378C941.426 512.723 941.956 512.193 942.611 512.193H943.964C944.618 512.193 945.149 512.723 945.149 513.378ZM945.149 507.284C945.149 507.938 944.618 508.469 943.964 508.469H942.611C941.956 508.469 941.426 507.938 941.426 507.284C941.426 506.629 941.956 506.099 942.611 506.099H943.964C944.618 506.099 945.149 506.629 945.149 507.284ZM945.149 501.189C945.149 501.844 944.618 502.374 943.964 502.374H942.611C941.956 502.374 941.426 501.844 941.426 501.189C941.426 500.535 941.956 500.005 942.611 500.005H943.964C944.618 500.005 945.149 500.535 945.149 501.189ZM945.149 495.434C945.149 496.088 944.618 496.619 943.964 496.619H942.611C941.956 496.619 941.426 496.088 941.426 495.434C941.426 494.779 941.956 494.249 942.611 494.249H943.964C944.618 494.249 945.149 494.779 945.149 495.434Z" fill="url(#paint2_linear)"/>
<path d="M1098.89 490.501C1040.11 490.501 992.564 591.395 992.564 715.746H1205.33C1205.33 591.269 1157.66 490.501 1098.89 490.501Z" fill="url(#paint3_linear)"/>
<path d="M1098.89 490.501C1040.11 490.501 992.564 591.395 992.564 715.746H1205.33C1205.33 591.269 1157.66 490.501 1098.89 490.501Z" fill="url(#paint4_linear)"/>
<mask id="mask1" mask-type="alpha" maskUnits="userSpaceOnUse" x="992" y="490" width="214" height="226">
<path d="M1098.89 490.501C1040.11 490.501 992.564 591.395 992.564 715.746H1205.33C1205.33 591.269 1157.66 490.501 1098.89 490.501Z" fill="url(#paint5_linear)"/>
</mask>
<g mask="url(#mask1)">
<path opacity="0.2" d="M1009.25 510.899C1042.94 495.553 1110.97 470.451 1113.6 492.812C1116.89 520.764 922.149 640.793 988.705 615.307C1055.26 589.822 1112.78 519.942 1127.57 544.605C1142.36 569.269 997.743 671.211 1046.22 666.279C1094.7 661.346 1154.68 547.894 1173.58 565.981C1192.48 584.067 1049.51 709.851 1081.56 720.538C1113.6 731.226 1201.52 552.827 1236.85 548.716" stroke="url(#paint6_linear)" stroke-width="2"/>
</g>
<path opacity="0.3" d="M1191.54 715.746H1205.33C1205.33 591.269 1157.66 490.501 1098.89 490.501C1096.57 490.501 1094.27 490.658 1091.99 490.966C1147.55 498.484 1191.54 596.176 1191.54 715.746Z" fill="#C9D983"/>
<path d="M1216.82 551.573C1173.82 551.573 1139.01 625.406 1139.01 716.403H1294.64C1294.52 625.406 1259.71 551.573 1216.82 551.573Z" fill="url(#paint7_linear)"/>
<mask id="mask2" mask-type="alpha" maskUnits="userSpaceOnUse" x="1139" y="551" width="156" height="166">
<path d="M1216.82 551.573C1173.82 551.573 1139.01 625.406 1139.01 716.403H1294.64C1294.52 625.406 1259.71 551.573 1216.82 551.573Z" fill="url(#paint8_linear)"/>
</mask>
<g mask="url(#mask2)">
<path opacity="0.2" d="M1192.37 514.142C1161.84 563.873 1112.92 653.132 1161.51 612.321C1222.25 561.306 1280.1 577.669 1256 612.321C1231.89 646.972 1161.51 628.684 1168.26 665.26C1173.66 694.521 1252.14 651.143 1290.7 625.796" stroke="url(#paint9_linear)" stroke-width="2"/>
</g>
<path opacity="0.3" fill-rule="evenodd" clip-rule="evenodd" d="M1278.23 716.403H1294.64C1294.52 625.406 1259.71 551.573 1216.82 551.573C1214.05 551.573 1211.31 551.881 1208.6 552.481C1247.64 561.178 1278.11 631.281 1278.23 716.403Z" fill="#C9D983"/>
<path d="M910.478 471.457C842.311 471.457 787.02 580.247 787.02 714.433H1033.94C1033.81 580.247 978.645 471.457 910.478 471.457Z" fill="url(#paint10_linear)"/>
<mask id="mask3" mask-type="alpha" maskUnits="userSpaceOnUse" x="787" y="471" width="247" height="244">
<path d="M910.478 471.457C842.311 471.457 787.02 580.247 787.02 714.433H1033.94C1033.81 580.247 978.645 471.457 910.478 471.457Z" fill="url(#paint11_linear)"/>
</mask>
<g mask="url(#mask3)">
<path opacity="0.2" d="M797.526 520.485C810.538 505.129 839.768 477.768 852.594 491.169C868.627 507.921 834.471 565.853 856.777 572.833C879.083 579.813 910.45 470.23 937.636 480.7C964.821 491.169 820.529 660.779 870.718 667.061C920.906 673.343 943.909 521.881 965.518 532.35C987.127 542.82 916.724 624.484 941.121 648.215C965.518 671.947 978.066 560.27 997.583 572.833C1017.1 585.397 1003.16 648.215 984.339 690.792" stroke="url(#paint12_linear)" stroke-width="2"/>
</g>
<path opacity="0.2" d="M1006.35 714.433H1033.94C1033.81 580.247 978.645 471.457 910.478 471.457C905.816 471.457 901.214 471.966 896.687 472.957C958.352 486.456 1006.24 589.423 1006.35 714.433Z" fill="#C9D983"/>
<path d="M1086.41 565.526H1084.12V713.23H1086.41V565.526Z" fill="#0C5E59"/>
<path d="M1101.91 556.174C1097.01 556.174 1092.45 559.709 1089.26 562.903C1091.42 559.823 1094.39 556.06 1096.67 555.375C1100.66 554.121 1103.85 554.691 1103.85 554.691C1103.85 554.691 1100.2 549.558 1094.73 551.954C1092.33 552.98 1090.28 556.402 1088.8 559.709C1089.6 556.63 1090.28 552.98 1089.71 549.672C1088.34 541.232 1079 540.548 1079 540.548C1079 540.548 1084.24 547.848 1085.15 556.402C1085.27 557.542 1085.38 558.683 1085.49 559.709C1084.7 554.805 1082.76 548.874 1077.97 545.68C1066.11 537.81 1058.7 551.611 1058.7 551.611C1058.7 551.611 1065.43 547.391 1074.32 551.84C1081.39 555.375 1084.35 562.903 1085.27 565.983C1084.13 563.701 1079.22 555.033 1071.47 553.778C1059.73 551.84 1056.76 566.667 1056.76 566.667C1056.76 566.667 1063.49 561.306 1071.81 561.648C1078.31 561.991 1082.87 564.614 1085.15 566.667C1083.9 566.325 1081.28 565.754 1078.08 565.64C1067.71 565.526 1065.54 579.441 1065.54 579.441L1085.27 567.351C1084.35 568.948 1082.64 572.37 1081.73 574.651C1080.36 577.845 1081.28 585.03 1081.28 585.03C1081.28 585.03 1084.47 579.555 1085.38 576.02C1086.29 572.598 1086.06 569.062 1085.95 567.351L1099.29 581.837C1099.29 581.837 1102.59 573.054 1092.45 568.834C1091.08 568.264 1089.94 567.807 1089.03 567.465C1091.42 567.807 1094.39 568.834 1097.46 570.773C1103.28 574.537 1107.04 579.783 1107.04 579.783C1107.04 579.783 1110.69 569.176 1101.8 564.842C1098.83 563.473 1095.53 563.587 1092.68 564.272C1094.84 563.017 1097.69 562.105 1101 562.561C1109.09 563.587 1111.37 569.29 1111.37 569.29C1111.37 569.29 1113.65 556.174 1101.91 556.174Z" fill="url(#paint13_linear)"/>
<path d="M999.418 474.744H995.77V715.975H999.418V474.744Z" fill="#0C5E59"/>
<path d="M1022.99 453.951C1014.09 453.951 1005.69 460.332 999.841 466.203C1003.78 460.588 1009.26 453.823 1013.45 452.419C1020.58 450.122 1026.56 451.27 1026.56 451.27C1026.56 451.27 1019.81 441.826 1009.89 446.293C1005.44 448.207 1001.75 454.461 999.078 460.46C1000.6 454.844 1001.62 448.207 1000.73 442.081C998.315 426.765 981.14 425.488 981.14 425.488C981.14 425.488 990.682 438.762 992.463 454.461C992.717 456.503 992.844 458.545 992.972 460.46C991.445 451.398 987.883 440.549 979.232 434.806C957.733 420.511 944.248 445.782 944.248 445.782C944.248 445.782 956.588 438.124 972.744 446.293C985.466 452.674 990.936 466.586 992.717 472.074C990.554 467.863 981.776 452.164 967.528 449.739C946.156 446.165 940.686 473.351 940.686 473.351C940.686 473.351 952.898 463.523 968.037 464.161C979.741 464.672 988.264 469.522 992.463 473.351C990.3 472.713 985.339 471.564 979.614 471.564C960.659 471.309 956.715 496.708 956.715 496.708L992.717 474.627C991.19 477.563 988.01 483.689 986.229 488.029C983.812 493.9 985.339 506.918 985.339 506.918C985.339 506.918 991.19 496.963 992.844 490.454C994.498 484.2 994.116 477.69 993.862 474.627L1018.29 501.047C1018.29 501.047 1024.27 484.965 1005.95 477.18C1003.53 476.159 1001.37 475.265 999.714 474.627C1004.17 475.265 1009.51 477.052 1014.98 480.626C1025.67 487.518 1032.41 496.963 1032.41 496.963C1032.41 496.963 1039.02 477.435 1022.74 469.777C1017.4 467.224 1011.29 467.607 1006.07 468.756C1010.02 466.459 1015.11 464.799 1021.34 465.565C1036.1 467.352 1040.17 477.946 1040.17 477.946C1040.17 477.946 1044.37 453.823 1022.99 453.951Z" fill="url(#paint14_linear)"/>
<path d="M921.06 687.595C918.78 677.102 915.018 667.179 910.001 658.054C909.317 656.8 908.519 655.431 907.721 654.176C901.907 644.482 894.724 635.813 886.402 628.285C885.376 627.259 884.236 626.346 883.096 625.434C874.203 618.02 864.056 611.975 853.112 607.641C851.744 607.071 850.376 606.615 849.007 606.158C838.063 602.28 826.206 600.113 814.007 599.885C813.323 599.885 812.525 599.885 811.841 599.885C811.157 599.885 810.359 599.885 809.675 599.885C797.362 600.113 785.619 602.28 774.675 606.158C773.307 606.615 771.939 607.185 770.57 607.641C759.626 611.975 749.479 618.02 740.587 625.434C739.447 626.346 738.306 627.373 737.28 628.285C728.958 635.813 721.661 644.482 715.961 654.176C715.163 655.431 714.479 656.8 713.681 658.054C708.665 667.179 704.902 677.102 702.622 687.595C702.28 689.078 702.052 690.561 701.71 692.043C700.57 698.431 700 704.932 700 711.547H923.568C923.568 704.932 922.998 698.317 921.858 692.043C921.63 690.561 921.402 689.078 921.06 687.595Z" fill="url(#paint15_linear)"/>
<path opacity="0.3" d="M809.676 599.771V711.547H814.008V599.771C813.324 599.771 812.526 599.771 811.842 599.771C811.044 599.771 810.36 599.771 809.676 599.771Z" fill="url(#paint16_linear)"/>
<path opacity="0.3" d="M770.57 607.641L798.388 711.661H802.834L774.561 606.158C773.306 606.615 771.938 607.071 770.57 607.641Z" fill="url(#paint17_linear)"/>
<path opacity="0.3" d="M737.28 628.285L785.391 711.547H790.294L740.586 625.434C739.446 626.346 738.306 627.373 737.28 628.285Z" fill="url(#paint18_linear)"/>
<path opacity="0.3" d="M713.681 658.054L767.264 711.661H773.307L715.847 654.176C715.163 655.431 714.365 656.8 713.681 658.054Z" fill="url(#paint19_linear)"/>
<path opacity="0.3" d="M701.71 692.043L735.57 711.547H744.235L702.622 687.481C702.28 689.078 702.052 690.561 701.71 692.043Z" fill="url(#paint20_linear)"/>
<path opacity="0.3" d="M820.734 711.661H825.181L852.998 607.641C851.63 607.071 850.262 606.615 848.894 606.158L820.734 711.661Z" fill="url(#paint21_linear)"/>
<path opacity="0.3" d="M833.274 711.661H838.291L886.402 628.399C885.376 627.373 884.236 626.461 883.096 625.548L833.274 711.661Z" fill="url(#paint22_linear)"/>
<g opacity="0.3">
<path d="M850.262 711.661H856.304L909.888 658.054C909.204 656.8 908.406 655.431 907.607 654.176L850.262 711.661Z" fill="url(#paint23_linear)"/>
</g>
<path d="M879.447 711.661H888.112L921.972 692.157C921.744 690.675 921.402 689.192 921.06 687.709L879.447 711.661Z" fill="#084F15"/>
<path d="M1004.74 696.378C1003.26 689.762 1000.87 683.375 997.673 677.558C997.217 676.76 996.761 675.961 996.305 675.049C992.657 668.89 988.097 663.415 982.738 658.625C982.054 658.054 981.37 657.37 980.572 656.8C974.872 652.123 968.488 648.245 961.533 645.508C960.735 645.166 959.823 644.824 958.911 644.596C951.956 642.086 944.432 640.718 936.68 640.604C936.223 640.604 935.767 640.604 935.311 640.604C934.855 640.604 934.399 640.604 933.943 640.604C926.191 640.718 918.666 642.2 911.712 644.596C910.8 644.938 910.002 645.166 909.09 645.508C902.135 648.245 895.751 652.123 890.051 656.8C889.367 657.37 888.682 658.054 887.884 658.625C882.526 663.415 877.966 668.89 874.318 675.049C873.862 675.847 873.405 676.646 872.949 677.558C869.757 683.375 867.363 689.648 865.881 696.378C865.653 697.29 865.539 698.316 865.311 699.229C864.627 703.221 864.171 707.441 864.171 711.661H1006.22C1006.22 707.441 1005.88 703.221 1005.08 699.229C1005.2 698.202 1004.97 697.29 1004.74 696.378Z" fill="url(#paint24_linear)"/>
<path opacity="0.3" d="M933.942 640.604V711.661H936.679V640.604C936.223 640.604 935.767 640.604 935.31 640.604C934.854 640.604 934.398 640.604 933.942 640.604Z" fill="url(#paint25_linear)"/>
<path opacity="0.3" d="M909.203 645.508L926.874 711.547H929.724L911.825 644.482C910.913 644.938 910.001 645.166 909.203 645.508Z" fill="url(#paint26_linear)"/>
<path opacity="0.3" d="M887.998 658.739L918.552 711.661H921.744L890.164 656.914C889.366 657.484 888.682 658.054 887.998 658.739Z" fill="url(#paint27_linear)"/>
<path opacity="0.3" d="M872.949 677.558L907.037 711.547H910.914L874.431 675.049C873.975 675.961 873.405 676.76 872.949 677.558Z" fill="url(#paint28_linear)"/>
<path opacity="0.3" d="M865.425 699.229L886.972 711.661H892.444L865.995 696.378C865.767 697.29 865.539 698.202 865.425 699.229Z" fill="url(#paint29_linear)"/>
<path opacity="0.3" d="M941.011 711.661H943.861L961.532 645.622C960.734 645.28 959.822 644.938 958.91 644.71L941.011 711.661Z" fill="url(#paint30_linear)"/>
<path opacity="0.3" d="M948.992 711.661H952.184L982.738 658.739C982.054 658.168 981.37 657.484 980.572 656.914L948.992 711.661Z" fill="url(#paint31_linear)"/>
<path opacity="0.3" d="M959.822 711.661H963.698L997.787 677.672C997.331 676.874 996.875 676.075 996.419 675.163L959.822 711.661Z" fill="url(#paint32_linear)"/>
<path opacity="0.3" d="M978.292 711.661H983.764L1005.31 699.229C1005.2 698.316 1004.97 697.29 1004.74 696.378L978.292 711.661Z" fill="url(#paint33_linear)"/>
<path d="M1290 704H-6V799.58H1290V704Z" fill="url(#paint34_linear)"/>
<mask id="mask4" mask-type="alpha" maskUnits="userSpaceOnUse" x="-6" y="704" width="1296" height="96">
<path d="M1290 704H-6V799.58H1290V704Z" fill="url(#paint35_linear)"/>
</mask>
<g mask="url(#mask4)">
<path opacity="0.7" fill-rule="evenodd" clip-rule="evenodd" d="M544.791 742.025C536.187 751.086 527.408 757.265 518.025 756.839C515.698 756.733 513.829 756.254 512.43 755.366C511.001 754.458 510.13 753.165 509.754 751.599C509.386 750.067 509.501 748.313 509.938 746.437C510.376 744.553 511.154 742.482 512.177 740.282C515.923 732.224 523.178 721.992 530.203 712.085L530.203 712.084L530.204 712.084C530.817 711.219 531.429 710.356 532.036 709.497C535.834 704.13 539.475 698.913 542.39 694.215C545.318 689.496 547.458 685.388 548.315 682.223C548.744 680.64 548.823 679.395 548.6 678.466C548.39 677.592 547.904 676.95 547.02 676.516C546.086 676.057 544.656 675.81 542.564 675.929C540.484 676.048 537.837 676.524 534.533 677.425C528.026 679.199 520.777 683.292 512.941 689.133C505.114 694.967 496.76 702.5 488.043 711.091C475.755 723.201 462.797 737.36 449.618 751.761L449.618 751.761L449.617 751.762L449.615 751.764C444.085 757.807 438.517 763.892 432.942 769.886C414.111 790.134 395.221 809.336 377.669 822.156C360.188 834.925 343.682 841.626 329.784 836.15C322.913 833.444 319.453 829.555 319.041 824.647C318.642 819.885 321.166 814.516 325.295 808.91C333.583 797.654 348.982 784.61 363.933 772.083C364.469 771.634 365.005 771.185 365.541 770.737L365.607 770.681L365.637 770.656C372.548 764.868 379.316 759.2 385.23 753.858C391.638 748.069 396.992 742.708 400.421 738.036C402.136 735.7 403.337 733.58 403.96 731.703C404.581 729.831 404.607 728.273 404.085 726.979C403.564 725.689 402.431 724.497 400.399 723.491C398.359 722.481 395.474 721.691 391.583 721.192C379.21 719.606 363.336 723.338 345.656 730.592C328.006 737.835 308.681 748.534 289.457 760.734C251.01 785.134 213.063 815.475 189.872 835.969L188.548 834.471C211.797 813.925 249.828 783.516 288.385 759.046C307.663 746.811 327.097 736.046 344.897 728.742C362.668 721.45 378.938 717.554 391.837 719.208C395.843 719.722 398.971 720.552 401.287 721.699C403.613 722.851 405.182 724.355 405.939 726.229C406.694 728.1 406.575 730.173 405.858 732.333C405.143 734.486 403.812 736.797 402.034 739.219C398.477 744.064 392.997 749.537 386.571 755.342C380.628 760.71 373.833 766.401 366.93 772.182L366.928 772.184L366.928 772.184L366.905 772.203C366.343 772.673 365.78 773.145 365.217 773.617C350.198 786.2 335.019 799.076 326.905 810.095C322.832 815.626 320.699 820.483 321.034 824.48C321.357 828.33 324.022 831.731 330.517 834.29C343.348 839.344 359.04 833.287 376.49 820.541C393.869 807.847 412.644 788.776 431.478 768.524C437.026 762.558 442.58 756.489 448.102 750.455L448.102 750.455C461.297 736.036 474.312 721.815 486.639 709.667C495.387 701.045 503.815 693.441 511.745 687.53C519.666 681.626 527.149 677.366 534.007 675.495C537.386 674.574 540.181 674.062 542.449 673.933C544.705 673.804 546.529 674.047 547.902 674.721C549.325 675.42 550.197 676.552 550.545 677.999C550.88 679.392 550.715 681.012 550.246 682.746C549.306 686.213 547.028 690.533 544.09 695.269C541.139 700.025 537.465 705.288 533.669 710.653C533.113 711.438 532.554 712.226 531.995 713.015L531.891 713.162L531.869 713.194C524.803 723.16 517.655 733.243 513.99 741.125C513.001 743.252 512.282 745.187 511.886 746.89C511.488 748.6 511.43 750.014 511.699 751.133C511.959 752.218 512.532 753.061 513.502 753.677C514.502 754.312 515.987 754.744 518.115 754.841C526.552 755.225 534.783 749.659 543.341 740.647C550.284 733.336 557.277 723.94 564.624 714.068L564.624 714.067L564.625 714.067L564.629 714.06L564.646 714.038C566.317 711.792 568.007 709.522 569.718 707.246C578.932 694.995 588.76 682.613 599.661 673.295C610.567 663.972 622.637 657.64 636.33 657.64V659.64C623.293 659.64 611.67 665.66 600.96 674.815C590.244 683.976 580.53 696.198 571.317 708.449C569.617 710.709 567.933 712.972 566.263 715.216L566.261 715.218L566.261 715.219C558.91 725.097 551.825 734.617 544.791 742.025ZM930.118 688.721C928.124 685.595 924.504 683.744 918.241 683.94C905.784 684.329 893.887 694.391 882.226 709.694C870.611 724.938 859.459 745.067 848.413 765.032L848.26 765.307C837.288 785.138 826.414 804.791 815.346 819.1C809.785 826.29 804.134 832.187 798.348 836.084C792.55 839.989 786.56 841.924 780.373 841.071C774.271 840.229 770.219 837.668 767.888 833.716C765.59 829.818 765.065 824.733 765.618 819.025C766.723 807.619 772.202 793.103 777.757 778.964C778.195 777.848 778.634 776.735 779.072 775.625L779.099 775.557L779.099 775.556C784.229 762.538 789.146 750.064 790.686 740.593C791.525 735.432 791.318 731.391 789.803 728.673C788.35 726.067 785.546 724.44 780.51 724.44C775.557 724.44 770.739 726.628 765.95 730.613C761.156 734.601 756.459 740.335 751.774 747.286C743.922 758.938 736.209 773.846 728.189 789.35C726.632 792.358 725.064 795.389 723.482 798.423C713.765 817.046 703.496 835.763 691.981 849.826C680.48 863.872 667.568 873.48 652.53 873.48C645.101 873.48 640.24 871.546 637.625 867.821C635.041 864.141 634.879 859.019 636.059 853.196C637.246 847.339 639.839 840.537 643.074 833.287C645.814 827.146 649.036 820.636 652.291 814.061L652.292 814.06L652.292 814.06C652.882 812.867 653.474 811.673 654.063 810.477C661.782 794.837 669.18 779.207 670.674 767.108C671.418 761.081 670.671 756.107 667.942 752.459C665.223 748.823 660.374 746.289 652.431 745.495C626.854 742.937 600.905 754.128 578.778 769.301C556.669 784.461 538.518 803.501 528.582 816.391L526.998 815.169C537.042 802.139 555.341 782.947 577.647 767.651C599.935 752.368 626.366 740.879 652.63 743.505C660.886 744.331 666.365 747.011 669.544 751.261C672.712 755.497 673.433 761.079 672.659 767.353C671.115 779.858 663.528 795.818 655.857 811.363C655.265 812.563 654.672 813.76 654.08 814.955L654.08 814.956C650.824 821.533 647.623 828.001 644.9 834.102C641.68 841.319 639.161 847.958 638.019 853.593C636.87 859.262 637.163 863.683 639.262 866.672C641.33 869.618 645.38 871.48 652.53 871.48C666.652 871.48 679.052 862.458 690.434 848.559C701.801 834.677 711.985 816.134 721.708 797.497C723.282 794.482 724.844 791.463 726.396 788.462L726.397 788.46C734.415 772.96 742.193 757.925 750.116 746.169C754.847 739.148 759.668 733.238 764.67 729.075C769.677 724.91 774.933 722.44 780.51 722.44C786.004 722.44 789.63 724.256 791.55 727.699C793.407 731.031 793.517 735.646 792.66 740.914C791.083 750.611 786.085 763.29 780.985 776.224L780.985 776.225C780.529 777.381 780.073 778.538 779.618 779.696C774.035 793.907 768.681 808.146 767.609 819.218C767.073 824.748 767.625 829.332 769.611 832.7C771.564 836.012 775.004 838.311 780.647 839.089C786.206 839.856 791.707 838.146 797.23 834.425C802.765 830.698 808.264 824.988 813.764 817.877C824.738 803.689 835.552 784.143 846.569 764.233L846.663 764.063C857.688 744.136 868.913 723.866 880.636 708.482C892.313 693.157 904.716 682.361 918.179 681.94C924.876 681.731 929.305 683.728 931.804 687.645C934.24 691.463 934.676 696.872 934.038 703.115C933.396 709.392 931.642 716.719 929.482 724.526C928.401 728.435 927.214 732.477 926.008 736.58L925.953 736.765C924.764 740.811 923.558 744.915 922.413 749.021C920.088 757.362 918.026 765.679 916.89 773.466C915.753 781.26 915.553 788.458 916.908 794.58C918.258 800.677 921.141 805.682 926.178 809.185C931.238 812.702 938.581 814.78 948.99 814.78V816.78C938.339 816.78 930.546 814.656 925.037 810.827C919.506 806.982 916.391 801.495 914.956 795.012C913.526 788.553 913.757 781.083 914.911 773.177C916.065 765.264 918.155 756.85 920.487 748.484C921.632 744.375 922.839 740.27 924.024 736.238L924.03 736.216L924.089 736.016C925.296 731.911 926.478 727.884 927.555 723.993C929.71 716.201 931.425 709.011 932.048 702.911C932.676 696.775 932.175 691.946 930.118 688.721ZM1243.17 783.093C1241.3 776.859 1237.38 770.044 1232.16 762.961C1226.94 755.869 1220.39 748.455 1213.21 741.021C1201.25 728.632 1187.48 716.138 1175.15 704.942L1175.15 704.942C1172.69 702.706 1170.28 700.522 1167.96 698.402C1160.97 692.023 1154.74 686.219 1149.94 681.275C1145.09 676.294 1141.82 672.301 1140.61 669.53C1140 668.13 1140.04 667.328 1140.3 666.885C1140.55 666.45 1141.23 665.963 1142.95 665.792C1146.36 665.453 1152.62 666.483 1162.56 669.322L1163.11 667.398C1153.2 664.567 1146.59 663.42 1142.75 663.802C1140.85 663.992 1139.31 664.59 1138.56 665.891C1137.82 667.184 1138.1 668.768 1138.78 670.329C1140.15 673.481 1143.69 677.715 1148.5 682.669C1153.35 687.66 1159.63 693.5 1166.61 699.878C1168.94 702.007 1171.35 704.197 1173.82 706.436C1186.15 717.633 1199.86 730.074 1211.77 742.41C1218.92 749.81 1225.41 757.153 1230.55 764.147C1235.71 771.15 1239.48 777.751 1241.25 783.667C1242.15 786.673 1242.68 789.087 1242.88 790.979C1243.07 792.891 1242.92 794.163 1242.57 794.959C1242.26 795.679 1241.77 796.042 1241.05 796.171C1240.25 796.315 1239.11 796.17 1237.57 795.647C1234.52 794.604 1230.38 792.228 1225.34 788.869C1220.31 785.524 1214.46 781.26 1207.97 776.499C1207.17 775.91 1206.36 775.313 1205.54 774.71C1193.11 765.573 1178.6 754.907 1163.45 745.622C1147.32 735.729 1130.4 727.355 1114.43 724.08C1106.53 722.459 1100.98 721.776 1097.42 721.967C1095.66 722.061 1094.24 722.376 1093.27 723.025C1092.76 723.362 1092.37 723.798 1092.12 724.342C1091.88 724.883 1091.83 725.463 1091.9 726.043C1092.04 727.164 1092.66 728.382 1093.54 729.641C1094.44 730.922 1095.68 732.349 1097.2 733.902C1100.22 737.009 1104.42 740.706 1109.33 744.859C1112.24 747.318 1115.41 749.94 1118.74 752.702L1118.74 752.706C1126.69 759.296 1135.6 766.681 1144.31 774.554C1156.67 785.726 1168.55 797.81 1176.58 809.855C1178.59 812.866 1179.91 815.272 1180.64 817.144C1181.38 819.057 1181.43 820.224 1181.18 820.883C1180.98 821.42 1180.49 821.854 1179.29 822.009C1178.06 822.168 1176.3 821.992 1174.02 821.463C1169.47 820.409 1163.18 818.042 1155.56 814.788C1147.96 811.539 1139.11 807.433 1129.44 802.926L1127.02 801.802C1108.24 793.047 1086.63 782.973 1065.46 774.878C1043.39 766.441 1021.69 760.109 1004.09 759.7C997.072 759.537 991.819 760.234 988.125 761.702C984.396 763.185 982.177 765.495 981.46 768.53C980.761 771.49 981.549 774.918 983.292 778.559C985.044 782.22 987.824 786.229 991.314 790.419C1005.26 807.16 1031.03 827.393 1050.48 840.901L1051.62 839.259C1032.19 825.767 1006.61 805.662 992.851 789.139C989.415 785.013 986.748 781.148 985.096 777.696C983.434 774.224 982.861 771.3 983.407 768.989C983.935 766.752 985.569 764.871 988.864 763.561C992.195 762.236 997.137 761.539 1004.05 761.7C1021.28 762.101 1042.71 768.324 1064.74 776.746C1085.85 784.815 1107.4 794.862 1126.2 803.624L1128.59 804.739C1138.26 809.243 1147.14 813.364 1154.78 816.627C1162.4 819.884 1168.83 822.314 1173.57 823.411C1175.92 823.958 1177.96 824.197 1179.54 823.993C1181.15 823.785 1182.5 823.078 1183.06 821.58C1183.57 820.205 1183.29 818.443 1182.5 816.418C1181.7 814.352 1180.29 811.809 1178.24 808.745C1170.07 796.49 1158.05 784.274 1145.66 773.07C1136.91 765.168 1127.95 757.735 1119.98 751.136L1119.98 751.134L1119.98 751.131C1116.65 748.377 1113.51 745.768 1110.62 743.331C1105.71 739.181 1101.58 735.538 1098.63 732.506C1097.15 730.99 1095.99 729.649 1095.18 728.492C1094.35 727.313 1093.96 726.424 1093.88 725.798C1093.85 725.505 1093.89 725.302 1093.95 725.154C1094.02 725.008 1094.14 724.849 1094.38 724.689C1094.9 724.343 1095.88 724.053 1097.53 723.964C1100.81 723.788 1106.14 724.421 1114.03 726.04C1129.65 729.245 1146.34 737.476 1162.41 747.327C1177.48 756.566 1191.92 767.186 1204.37 776.33C1205.18 776.931 1205.99 777.524 1206.79 778.111C1213.27 782.868 1219.16 787.159 1224.23 790.534C1229.28 793.896 1233.6 796.405 1236.93 797.54C1238.58 798.105 1240.11 798.371 1241.4 798.14C1242.78 797.894 1243.82 797.096 1244.41 795.76C1244.96 794.498 1245.08 792.819 1244.86 790.774C1244.65 788.709 1244.09 786.162 1243.17 783.093Z" fill="url(#paint36_linear)"/>
<path opacity="0.1" d="M382.158 737.448C248.928 737.448 226.558 781.701 -8.42969 781.701V851.42H1290V702.38C1004.91 702.38 1041.61 764.584 796.032 764.584C550.46 764.584 497.535 737.448 382.158 737.448Z" fill="url(#paint37_linear)"/>
</g>
<path opacity="0.2" d="M469.507 409.869C583.589 295.787 583.629 110.784 469.598 -3.34713C355.566 -117.478 170.644 -117.519 56.5626 -3.43723C-57.5188 110.644 -57.5592 295.647 56.4724 409.778C170.504 523.91 355.426 523.95 469.507 409.869Z" fill="url(#paint38_linear)"/>
<path d="M73.4381 428.741H78.9824V795.347H73.4381V428.741Z" fill="#0C5E59"/>
<path d="M37.6076 397.141C51.141 397.141 63.9012 406.839 72.7946 415.762C66.8012 407.227 58.4878 396.947 52.1077 394.813C41.281 391.322 32.1942 393.068 32.1942 393.068C32.1942 393.068 42.4409 378.714 57.5211 385.503C64.2878 388.412 69.8945 397.917 73.9545 407.033C71.6345 398.499 70.0879 388.412 71.4412 379.102C75.1146 355.826 101.215 353.886 101.215 353.886C101.215 353.886 86.7147 374.059 84.008 397.917C83.6213 401.02 83.4279 404.124 83.2346 407.033C85.5546 393.262 90.9681 376.774 104.115 368.046C136.788 346.321 157.282 384.727 157.282 384.727C157.282 384.727 138.528 373.089 113.975 385.503C94.6414 395.201 86.328 416.344 83.6213 424.684C86.908 418.284 100.248 394.425 121.902 390.74C154.382 385.309 162.695 426.624 162.695 426.624C162.695 426.624 144.135 411.689 121.128 412.658C103.341 413.434 90.388 420.805 84.008 426.624C87.2947 425.654 94.8347 423.909 103.535 423.909C132.342 423.521 138.335 462.12 138.335 462.12L83.6213 428.564C85.9413 433.025 90.7747 442.336 93.4814 448.93C97.1548 457.853 94.8347 477.638 94.8347 477.638C94.8347 477.638 85.9413 462.508 83.428 452.616C80.9146 443.111 81.4947 433.219 81.8813 428.564L44.761 468.715C44.761 468.715 35.6743 444.275 63.5145 432.443C67.1879 430.891 70.4745 429.534 72.9879 428.564C66.2211 429.534 58.1011 432.249 49.7877 437.68C33.5475 448.155 23.3008 462.508 23.3008 462.508C23.3008 462.508 13.2474 432.831 37.9943 421.193C46.1143 417.314 55.3944 417.896 63.3211 419.641C57.3277 416.15 49.5943 413.628 40.1209 414.792C17.6941 417.508 11.5074 433.607 11.5074 433.607C11.5074 433.607 5.12732 396.947 37.6076 397.141Z" fill="url(#paint39_linear)"/>
<path d="M231.375 771.59C228.988 760.607 225.05 750.221 219.8 740.671C219.084 739.358 218.249 737.925 217.414 736.612C211.328 726.465 203.81 717.392 195.099 709.513C194.025 708.438 192.832 707.483 191.639 706.528C182.331 698.769 171.711 692.442 160.256 687.905C158.824 687.308 157.392 686.831 155.96 686.353C144.505 682.294 132.095 680.026 119.327 679.788C118.611 679.788 117.776 679.788 117.06 679.788C116.344 679.788 115.508 679.788 114.792 679.788C101.905 680.026 89.6145 682.294 78.1591 686.353C76.7272 686.831 75.2953 687.428 73.8633 687.905C62.408 692.442 51.7879 698.769 42.4804 706.528C41.2871 707.483 40.0938 708.558 39.0199 709.513C30.309 717.392 22.6721 726.465 16.7058 736.612C15.8705 737.925 15.1545 739.358 14.3192 740.671C9.06884 750.221 5.13108 760.607 2.74454 771.59C2.38656 773.142 2.14788 774.694 1.7899 776.246C0.596634 782.931 0 789.736 0 796.66H234C234 789.736 233.403 782.812 232.21 776.246C231.971 774.694 231.733 773.142 231.375 771.59Z" fill="url(#paint40_linear)"/>
<path fill-rule="evenodd" clip-rule="evenodd" d="M114.793 679.668V796.66H119.327V679.668H117.06H114.793ZM73.8635 687.905L102.979 796.779H107.633L78.04 686.353C77.696 686.479 77.3438 686.604 76.9855 686.731L76.9854 686.731L76.9853 686.731L76.9852 686.731L76.9852 686.731L76.9851 686.731L76.985 686.731L76.9849 686.731C75.9764 687.09 74.92 687.465 73.8635 687.905ZM89.376 796.66L39.0201 709.513L39.3425 709.226L39.3427 709.226C40.3305 708.346 41.4055 707.389 42.4805 706.528L94.507 796.66H89.376ZM14.3194 740.671L70.4031 796.779H76.7274L16.5866 736.612C16.2286 737.269 15.8408 737.955 15.453 738.641C15.0652 739.328 14.6774 740.014 14.3194 740.671ZM37.2301 796.66L1.79004 776.246C1.98763 775.389 2.14888 774.533 2.3139 773.656L2.31392 773.656C2.44786 772.944 2.5843 772.219 2.74468 771.471L46.299 796.66H37.2301ZM126.367 796.779H131.021L160.137 687.905C158.705 687.308 157.273 686.831 155.841 686.353L126.367 796.779ZM144.744 796.779H139.493L191.639 706.648C192.832 707.603 194.026 708.558 195.1 709.632L144.744 796.779ZM157.273 796.779H163.597L219.681 740.671C218.965 739.358 218.13 737.925 217.294 736.612L157.273 796.779ZM196.89 796.779H187.821L231.375 771.709C231.733 773.261 232.091 774.813 232.33 776.365L196.89 796.779Z" fill="url(#paint41_linear)"/>
<path d="M65.373 731.029C54.4039 731.029 50.2904 721.427 50.2904 708.053C50.2904 694.678 46.5197 683.704 31.7799 683.018C12.584 682.333 14.298 700.851 14.298 723.485C14.298 752.291 4.01441 733.773 -10.3825 749.891C-22.7228 763.608 -6.95461 787.957 -2.15563 795.158H59.8883C61.945 791.386 67.0867 782.127 72.9141 770.81C85.9399 746.804 76.3421 731.029 65.373 731.029Z" fill="url(#paint42_linear)"/>
<path opacity="0.2" fill-rule="evenodd" clip-rule="evenodd" d="M35.893 735.487H32.8081V778.495L19.849 761.209L17.3809 763.061L32.8081 783.639V795.158H35.893V762.664L48.9655 746.444L46.5639 744.506L35.893 757.747V735.487Z" fill="white"/>
<path d="M65.373 681.941C54.4039 681.941 50.2904 672.339 50.2904 658.965C50.2904 645.59 46.5197 634.616 31.7799 633.931C12.584 633.245 14.298 651.763 14.298 674.397C14.298 703.203 4.01441 684.685 -10.3825 700.803C-22.7228 714.52 -6.95461 738.869 -2.15563 746.07H59.8883C61.945 742.298 67.0867 733.039 72.9141 721.722C85.9399 697.716 76.3421 681.941 65.373 681.941Z" fill="url(#paint43_linear)"/>
<path opacity="0.2" fill-rule="evenodd" clip-rule="evenodd" d="M35.893 686.4H32.8081V729.407L19.849 712.121L17.3809 713.973L32.8081 734.551V746.07H35.893V713.576L48.9655 697.356L46.5639 695.418L35.893 708.659V686.4Z" fill="white"/>
<path d="M1285 -5H0V795H1185C1240.23 795 1285 750.228 1285 695V-5Z" fill="url(#paint44_linear)"/>
</g>
<path opacity="0.2" d="M890.404 794.808C1007.16 794.808 1101.85 700.159 1101.9 583.404C1101.95 466.649 1007.34 372 890.588 372C773.833 372 679.143 466.649 679.092 583.404C679.041 700.159 773.648 794.808 890.404 794.808Z" fill="url(#paint45_linear)"/>
<path opacity="0.56" d="M1285 618L1285 348L1285 67.9999C1017 22.9999 889.916 190.237 889.846 349.88C889.776 509.523 1064 649 1285 618Z" fill="url(#paint46_linear)"/>
<defs>
<linearGradient id="paint0_linear" x1="892.272" y1="1114.08" x2="-93.4885" y2="301.262" gradientUnits="userSpaceOnUse">
<stop stop-color="#FFEDBA"/>
<stop offset="1" stop-color="#EE4D47"/>
</linearGradient>
<linearGradient id="paint1_linear" x1="793" y1="985" x2="-63.5252" y2="253.836" gradientUnits="userSpaceOnUse">
<stop stop-color="#FFEDBA"/>
<stop offset="1" stop-color="#EE4D47"/>
</linearGradient>
<linearGradient id="paint2_linear" x1="865" y1="-217" x2="865" y2="887" gradientUnits="userSpaceOnUse">
<stop stop-color="#F4A984"/>
<stop offset="1" stop-color="#F4A984" stop-opacity="0"/>
</linearGradient>
<linearGradient id="paint3_linear" x1="1098.95" y1="442.562" x2="1098.95" y2="722.313" gradientUnits="userSpaceOnUse">
<stop offset="0.240793" stop-color="#2CA77F"/>
<stop offset="1" stop-color="#1B8877"/>
</linearGradient>
<linearGradient id="paint4_linear" x1="1098.95" y1="442.562" x2="1098.95" y2="722.313" gradientUnits="userSpaceOnUse">
<stop offset="0.240793" stop-color="#2CA77F"/>
<stop offset="1" stop-color="#1B8877"/>
</linearGradient>
<linearGradient id="paint5_linear" x1="1098.95" y1="442.562" x2="1098.95" y2="722.313" gradientUnits="userSpaceOnUse">
<stop offset="0.240793" stop-color="#2CA77F"/>
<stop offset="1" stop-color="#1B8877"/>
</linearGradient>
<linearGradient id="paint6_linear" x1="1105.84" y1="453.726" x2="1105.84" y2="707.866" gradientUnits="userSpaceOnUse">
<stop stop-color="white"/>
<stop offset="1" stop-color="white" stop-opacity="0"/>
</linearGradient>
<linearGradient id="paint7_linear" x1="1216.82" y1="522.679" x2="1216.82" y2="716.403" gradientUnits="userSpaceOnUse">
<stop offset="0.422311" stop-color="#2CA77F"/>
<stop offset="1" stop-color="#1B8877"/>
</linearGradient>
<linearGradient id="paint8_linear" x1="1216.82" y1="522.679" x2="1216.82" y2="716.403" gradientUnits="userSpaceOnUse">
<stop offset="0.422311" stop-color="#2CA77F"/>
<stop offset="1" stop-color="#1B8877"/>
</linearGradient>
<linearGradient id="paint9_linear" x1="1215.84" y1="552.23" x2="1215.84" y2="710.493" gradientUnits="userSpaceOnUse">
<stop stop-color="white"/>
<stop offset="1" stop-color="white" stop-opacity="0"/>
</linearGradient>
<linearGradient id="paint10_linear" x1="910.478" y1="471.457" x2="910.478" y2="763.803" gradientUnits="userSpaceOnUse">
<stop offset="0.422311" stop-color="#2CA77F"/>
<stop offset="1" stop-color="#1B8877"/>
</linearGradient>
<linearGradient id="paint11_linear" x1="910.478" y1="471.457" x2="910.478" y2="763.803" gradientUnits="userSpaceOnUse">
<stop offset="0.422311" stop-color="#2CA77F"/>
<stop offset="1" stop-color="#1B8877"/>
</linearGradient>
<linearGradient id="paint12_linear" x1="902.269" y1="529.897" x2="902.269" y2="737.254" gradientUnits="userSpaceOnUse">
<stop stop-color="white"/>
<stop offset="1" stop-color="white" stop-opacity="0"/>
</linearGradient>
<linearGradient id="paint13_linear" x1="1084.16" y1="526.011" x2="1084.16" y2="585.03" gradientUnits="userSpaceOnUse">
<stop stop-color="#D3D86C"/>
<stop offset="1" stop-color="#82A637"/>
</linearGradient>
<linearGradient id="paint14_linear" x1="990.594" y1="398.877" x2="990.594" y2="506.918" gradientUnits="userSpaceOnUse">
<stop stop-color="#D3D86C"/>
<stop offset="1" stop-color="#82A637"/>
</linearGradient>
<linearGradient id="paint15_linear" x1="811.784" y1="563.394" x2="811.784" y2="711.547" gradientUnits="userSpaceOnUse">
<stop stop-color="#D3D86C"/>
<stop offset="1" stop-color="#82A637"/>
</linearGradient>
<linearGradient id="paint16_linear" x1="811.842" y1="599.771" x2="811.842" y2="711.547" gradientUnits="userSpaceOnUse">
<stop stop-color="#084F15" stop-opacity="0"/>
<stop offset="1" stop-color="#084F15"/>
</linearGradient>
<linearGradient id="paint17_linear" x1="786.702" y1="606.158" x2="786.702" y2="711.661" gradientUnits="userSpaceOnUse">
<stop stop-color="#084F15" stop-opacity="0"/>
<stop offset="1" stop-color="#084F15"/>
</linearGradient>
<linearGradient id="paint18_linear" x1="763.787" y1="625.434" x2="763.787" y2="711.547" gradientUnits="userSpaceOnUse">
<stop stop-color="#084F15" stop-opacity="0"/>
<stop offset="1" stop-color="#084F15"/>
</linearGradient>
<linearGradient id="paint19_linear" x1="743.494" y1="654.176" x2="743.494" y2="711.661" gradientUnits="userSpaceOnUse">
<stop stop-color="#084F15" stop-opacity="0"/>
<stop offset="1" stop-color="#084F15"/>
</linearGradient>
<linearGradient id="paint20_linear" x1="722.972" y1="687.481" x2="722.972" y2="711.547" gradientUnits="userSpaceOnUse">
<stop stop-color="#084F15" stop-opacity="0"/>
<stop offset="1" stop-color="#084F15"/>
</linearGradient>
<linearGradient id="paint21_linear" x1="836.866" y1="606.158" x2="836.866" y2="711.661" gradientUnits="userSpaceOnUse">
<stop stop-color="#084F15" stop-opacity="0"/>
<stop offset="1" stop-color="#084F15"/>
</linearGradient>
<linearGradient id="paint22_linear" x1="859.838" y1="625.548" x2="859.838" y2="711.661" gradientUnits="userSpaceOnUse">
<stop stop-color="#084F15" stop-opacity="0"/>
<stop offset="1" stop-color="#084F15"/>
</linearGradient>
<linearGradient id="paint23_linear" x1="880.075" y1="654.176" x2="880.075" y2="711.661" gradientUnits="userSpaceOnUse">
<stop stop-color="#084F15" stop-opacity="0"/>
<stop offset="1" stop-color="#084F15"/>
</linearGradient>
<linearGradient id="paint24_linear" x1="935.197" y1="617.382" x2="935.197" y2="711.661" gradientUnits="userSpaceOnUse">
<stop stop-color="#D3D86C"/>
<stop offset="1" stop-color="#82A637"/>
</linearGradient>
<linearGradient id="paint25_linear" x1="935.31" y1="640.604" x2="935.31" y2="711.661" gradientUnits="userSpaceOnUse">
<stop stop-color="#084F15" stop-opacity="0"/>
<stop offset="1" stop-color="#084F15"/>
</linearGradient>
<linearGradient id="paint26_linear" x1="919.464" y1="644.482" x2="919.464" y2="711.547" gradientUnits="userSpaceOnUse">
<stop stop-color="#084F15" stop-opacity="0"/>
<stop offset="1" stop-color="#084F15"/>
</linearGradient>
<linearGradient id="paint27_linear" x1="904.871" y1="656.914" x2="904.871" y2="711.661" gradientUnits="userSpaceOnUse">
<stop stop-color="#084F15" stop-opacity="0"/>
<stop offset="1" stop-color="#084F15"/>
</linearGradient>
<linearGradient id="paint28_linear" x1="891.931" y1="675.049" x2="891.931" y2="711.547" gradientUnits="userSpaceOnUse">
<stop stop-color="#084F15" stop-opacity="0"/>
<stop offset="1" stop-color="#084F15"/>
</linearGradient>
<linearGradient id="paint29_linear" x1="878.935" y1="696.378" x2="878.935" y2="711.661" gradientUnits="userSpaceOnUse">
<stop stop-color="#084F15" stop-opacity="0"/>
<stop offset="1" stop-color="#084F15"/>
</linearGradient>
<linearGradient id="paint30_linear" x1="951.271" y1="644.71" x2="951.271" y2="711.661" gradientUnits="userSpaceOnUse">
<stop stop-color="#084F15" stop-opacity="0"/>
<stop offset="1" stop-color="#084F15"/>
</linearGradient>
<linearGradient id="paint31_linear" x1="965.865" y1="656.914" x2="965.865" y2="711.661" gradientUnits="userSpaceOnUse">
<stop stop-color="#084F15" stop-opacity="0"/>
<stop offset="1" stop-color="#084F15"/>
</linearGradient>
<linearGradient id="paint32_linear" x1="978.804" y1="675.163" x2="978.804" y2="711.661" gradientUnits="userSpaceOnUse">
<stop stop-color="#084F15" stop-opacity="0"/>
<stop offset="1" stop-color="#084F15"/>
</linearGradient>
<linearGradient id="paint33_linear" x1="991.802" y1="696.378" x2="991.802" y2="711.661" gradientUnits="userSpaceOnUse">
<stop stop-color="#084F15" stop-opacity="0"/>
<stop offset="1" stop-color="#084F15"/>
</linearGradient>
<linearGradient id="paint34_linear" x1="319.869" y1="423.786" x2="319.869" y2="892.717" gradientUnits="userSpaceOnUse">
<stop offset="0.278352" stop-color="#EEEF99"/>
<stop offset="0.76976" stop-color="#B9D079"/>
</linearGradient>
<linearGradient id="paint35_linear" x1="319.869" y1="423.786" x2="319.869" y2="892.717" gradientUnits="userSpaceOnUse">
<stop offset="0.278352" stop-color="#EEEF99"/>
<stop offset="0.76976" stop-color="#B9D079"/>
</linearGradient>
<linearGradient id="paint36_linear" x1="716.755" y1="708.737" x2="716.755" y2="921.053" gradientUnits="userSpaceOnUse">
<stop stop-color="white"/>
<stop offset="1" stop-color="white" stop-opacity="0"/>
</linearGradient>
<linearGradient id="paint37_linear" x1="640.785" y1="645.774" x2="640.785" y2="855.992" gradientUnits="userSpaceOnUse">
<stop offset="0.164151" stop-color="#82A637"/>
<stop offset="0.890649" stop-color="#1B8877"/>
</linearGradient>
<linearGradient id="paint38_linear" x1="56.5841" y1="-101.468" x2="56.6618" y2="254.265" gradientUnits="userSpaceOnUse">
<stop stop-color="white"/>
<stop offset="1" stop-color="white" stop-opacity="0"/>
</linearGradient>
<linearGradient id="paint39_linear" x1="86.8476" y1="313.444" x2="86.8476" y2="477.638" gradientUnits="userSpaceOnUse">
<stop stop-color="#D3D86C"/>
<stop offset="1" stop-color="#82A637"/>
</linearGradient>
<linearGradient id="paint40_linear" x1="117" y1="641.593" x2="117" y2="796.66" gradientUnits="userSpaceOnUse">
<stop stop-color="#D3D86C"/>
<stop offset="1" stop-color="#82A637"/>
</linearGradient>
<linearGradient id="paint41_linear" x1="210.075" y1="679.397" x2="210.075" y2="950.894" gradientUnits="userSpaceOnUse">
<stop stop-color="#084F15" stop-opacity="0"/>
<stop offset="1" stop-color="#084F15"/>
</linearGradient>
<linearGradient id="paint42_linear" x1="32.0952" y1="683" x2="32.0952" y2="817.947" gradientUnits="userSpaceOnUse">
<stop offset="0.422311" stop-color="#2CA77F"/>
<stop offset="1" stop-color="#1B8877"/>
</linearGradient>
<linearGradient id="paint43_linear" x1="32.0952" y1="633.912" x2="32.0952" y2="768.859" gradientUnits="userSpaceOnUse">
<stop offset="0.422311" stop-color="#2CA77F"/>
<stop offset="1" stop-color="#1B8877"/>
</linearGradient>
<linearGradient id="paint44_linear" x1="892.272" y1="459" x2="892.272" y2="-233" gradientUnits="userSpaceOnUse">
<stop stop-color="#FFEDBA" stop-opacity="0"/>
<stop offset="1" stop-color="#EB2A24"/>
</linearGradient>
<linearGradient id="paint45_linear" x1="940.763" y1="321.847" x2="758.768" y2="503.921" gradientUnits="userSpaceOnUse">
<stop stop-color="white"/>
<stop offset="1" stop-color="white" stop-opacity="0"/>
</linearGradient>
<linearGradient id="paint46_linear" x1="1247.64" y1="-7.75422" x2="998.79" y2="241.202" gradientUnits="userSpaceOnUse">
<stop stop-color="white"/>
<stop offset="1" stop-color="white" stop-opacity="0"/>
</linearGradient>
</defs>
</svg>
